
        <svg xmlns="http://www.w3.org/2000/svg" xmlns:xlink="http://www.w3.org/1999/xlink" version="1.1" width="3189.873417721519" 
        height="1291.1392405063293" viewBox="0 0 3189.873417721519 1291.1392405063293">
			
			<g transform="scale(9.49367088607595) translate(10, 10)">
				<defs id="SvgjsDefs7826"><linearGradient id="SvgjsLinearGradient7833"><stop id="SvgjsStop7834" stop-color="#006838" offset="0"></stop><stop id="SvgjsStop7835" stop-color="#96cf24" offset="1"></stop></linearGradient></defs><g id="SvgjsG7827" featureKey="symbolFeature-0" transform="matrix(0.8394151124329123,0,0,0.8394151124329123,-9.26882151778272,16.029240375711215)" fill="url(#SvgjsLinearGradient7833)"><polygon xmlns="http://www.w3.org/2000/svg" points="82.712,57.105 82.712,55.758 57.669,92.887 58.577,92.887 "></polygon><polygon xmlns="http://www.w3.org/2000/svg" points="82.712,39.183 82.712,37.836 45.581,92.887 46.488,92.887 "></polygon><polygon xmlns="http://www.w3.org/2000/svg" points="82.712,51.984 82.712,50.639 54.215,92.887 55.123,92.887 "></polygon><polygon xmlns="http://www.w3.org/2000/svg" points="82.712,46.864 82.712,45.518 50.762,92.887 51.67,92.887 "></polygon><polygon xmlns="http://www.w3.org/2000/svg" points="82.712,23.821 82.712,22.475 35.219,92.887 36.127,92.887 "></polygon><polygon xmlns="http://www.w3.org/2000/svg" points="82.712,54.545 82.712,53.198 55.942,92.887 56.851,92.887 "></polygon><polygon xmlns="http://www.w3.org/2000/svg" points="82.712,34.063 82.712,32.716 42.126,92.887 43.035,92.887 "></polygon><polygon xmlns="http://www.w3.org/2000/svg" points="82.712,28.942 82.712,27.595 38.673,92.887 39.581,92.887 "></polygon><polygon xmlns="http://www.w3.org/2000/svg" points="42.972,64.816 42.518,64.143 23.13,92.887 24.038,92.887 "></polygon><polygon xmlns="http://www.w3.org/2000/svg" points="82.712,44.304 82.712,42.957 49.035,92.887 49.943,92.887 "></polygon><polygon xmlns="http://www.w3.org/2000/svg" points="82.712,18.701 82.712,17.354 31.765,92.887 32.673,92.887 "></polygon><polygon xmlns="http://www.w3.org/2000/svg" points="82.712,13.581 82.712,12.234 28.311,92.887 29.219,92.887 "></polygon><polygon xmlns="http://www.w3.org/2000/svg" points="39.518,59.695 39.064,59.022 16.223,92.887 17.131,92.887 "></polygon><polygon xmlns="http://www.w3.org/2000/svg" points="82.712,41.744 82.712,40.396 47.307,92.887 48.216,92.887 "></polygon><polygon xmlns="http://www.w3.org/2000/svg" points="82.712,36.623 82.712,35.276 43.853,92.887 44.761,92.887 "></polygon><polygon xmlns="http://www.w3.org/2000/svg" points="82.712,11.02 82.712,9.673 26.584,92.887 27.492,92.887 "></polygon><polygon xmlns="http://www.w3.org/2000/svg" points="82.712,49.424 82.712,48.078 52.488,92.887 53.396,92.887 "></polygon><polygon xmlns="http://www.w3.org/2000/svg" points="82.712,67.893 65.854,92.887 82.712,92.887 "></polygon><polygon xmlns="http://www.w3.org/2000/svg" points="82.712,26.382 82.712,25.035 36.946,92.887 37.854,92.887 "></polygon><polygon xmlns="http://www.w3.org/2000/svg" points="82.712,21.261 82.712,19.915 33.492,92.887 34.4,92.887 "></polygon><polygon xmlns="http://www.w3.org/2000/svg" points="41.245,62.257 40.791,61.583 19.676,92.887 20.584,92.887 "></polygon><polygon xmlns="http://www.w3.org/2000/svg" points="82.712,31.502 82.712,30.156 40.399,92.887 41.308,92.887 "></polygon><polygon xmlns="http://www.w3.org/2000/svg" points="82.712,8.459 82.712,7.113 24.857,92.887 25.766,92.887 "></polygon><polygon xmlns="http://www.w3.org/2000/svg" points="42.108,63.536 41.654,62.863 21.403,92.887 22.312,92.887 "></polygon><polygon xmlns="http://www.w3.org/2000/svg" points="37.791,57.135 37.337,56.463 12.769,92.887 13.677,92.887 "></polygon><polygon xmlns="http://www.w3.org/2000/svg" points="82.712,16.141 82.712,14.794 30.038,92.887 30.946,92.887 "></polygon><polygon xmlns="http://www.w3.org/2000/svg" points="40.381,60.976 39.927,60.303 17.949,92.887 18.857,92.887 "></polygon><polygon xmlns="http://www.w3.org/2000/svg" points="38.654,58.416 38.2,57.742 14.496,92.887 15.404,92.887 "></polygon><polygon xmlns="http://www.w3.org/2000/svg" points="36.928,55.855 36.474,55.182 11.042,92.887 11.95,92.887 "></polygon><g xmlns="http://www.w3.org/2000/svg"><polygon points="62.83,92.887 63.739,92.887 82.712,64.758 82.712,63.412  "></polygon><polygon points="59.378,92.887 60.286,92.887 82.712,59.638 82.712,58.291  "></polygon><polygon points="61.104,92.887 62.012,92.887 82.712,62.198 82.712,60.852  "></polygon></g></g><g id="SvgjsG7828" featureKey="textGroupContainer" transform="matrix(1,0,0,1,315,0)" fill="#ffffff"><rect xmlns="http://www.w3.org/2000/svg" y="0" height="1" width="1" opacity="0"></rect><rect xmlns="http://www.w3.org/2000/svg" y="0" x="-235" width="3" height="116"></rect></g><g id="SvgjsG7829" featureKey="nameFeature-0" transform="matrix(1.7730495974209401,0,0,1.7730495974209401,94.45390080515813,15.524824074147972)" fill="#ffffff"><path d="M2 40 l0 -32 l3.6 0 l5.24 19.6 l-0.04 -0.4 l0 -19.2 l4 0 l0 32 l-3.6 0 l-5.24 -17.6 l0.04 0.4 l0 17.2 l-4 0 z M17.6 8 l4.2 0 l2.4 23.6 l0.4 0 l2.4 -23.6 l4.2 0 l-4.4 32 l-4.8 0 z M42.8 40 l0 -32 l8.4 0 l0 3.2 l-4.4 0 l0 12 l3.6 0 l0 3.2 l-3.6 0 l0 13.6 l-4 0 z M54 40 l0 -32 l4 0 l0 28 l5.2 0 l0 4 l-9.2 0 z M65.6 40 l0 -32 l4 0 l0 32 l-4 0 z M73.19999999999999 23.16 c0 -11.16 0 -15.56 6 -15.56 c4.56 0 5.64 2.52 5.92 8.56 l-3.72 0 c-0.16 -4.36 -0.6 -5.36 -2.2 -5.36 c-2.24 0 -2.24 1.96 -2.24 12.36 c0 11.56 0 13.24 2.24 13.24 c2.12 0 2.24 -1.52 2.24 -10 l-2.64 0 l0 -3.2 l6.4 0 l0 1.56 c0 11.2 0 15.64 -6 15.64 s-6 -4.44 -6 -17.24 z M88.39999999999999 40 l0 -32 l4 0 l0 13.6 l4 0 l0 -13.6 l4 0 l0 32 l-4 0 l0 -15.2 l-4 0 l0 15.2 l-4 0 z M102.8 11.600000000000001 l0 -3.6 l12 0 l0 3.6 l-4 0 l0 28.4 l-4 0 l0 -28.4 l-4 0 z"></path></g>
			</g>
		</svg>
	